<svg xmlns="http://www.w3.org/2000/svg" viewBox="0 0 480 320">
<rect width="480" height="320" fill="#f1e8cf"/><rect y="230" width="480" height="90" fill="#d9c9a0"/>
<rect x="60" y="200" width="360" height="16" rx="4" fill="#6d4c41"/><rect x="90" y="216" width="12" height="80" fill="#6d4c41"/><rect x="378" y="216" width="12" height="80" fill="#6d4c41"/>
<rect x="110" y="140" width="34" height="60" rx="8" fill="#2e7d32"/><rect x="120" y="122" width="14" height="22" fill="#2e7d32"/>
<rect x="170" y="150" width="30" height="50" rx="8" fill="#1f5fa8"/><rect x="178" y="134" width="14" height="18" fill="#1f5fa8"/>
<rect x="240" y="165" width="44" height="35" rx="4" fill="#f2b600"/><rect x="310" y="130" width="46" height="70" rx="4" fill="#fff" stroke="#1a3a2e" stroke-width="3"/>
<path d="M333 130 v-30 M333 112 q-20 -20 -34 -6 M333 112 q18 -22 34 -8" stroke="#2e7d32" stroke-width="5" fill="none" stroke-linecap="round"/>
</svg>